<svg xmlns="http://www.w3.org/2000/svg" viewBox="0 0 24 24" fill="none" stroke="currentColor" stroke-width="1.8" stroke-linecap="round" stroke-linejoin="round">
  <!-- Broadcast waves -->
  <path d="M4.9 19.1A10 10 0 0 1 2 12a10 10 0 0 1 2.9-7.1"/>
  <path d="M19.1 4.9A10 10 0 0 1 22 12a10 10 0 0 1-2.9 7.1"/>
  <path d="M7.8 16.2A6 6 0 0 1 6 12a6 6 0 0 1 1.8-4.2"/>
  <path d="M16.2 7.8A6 6 0 0 1 18 12a6 6 0 0 1-1.8 4.2"/>
  <!-- Center dot (LIVE) -->
  <circle cx="12" cy="12" r="2" fill="currentColor"/>
</svg>
